<?xml version="1.0" encoding="UTF-8"?>
<svg xmlns="http://www.w3.org/2000/svg" xmlns:xlink="http://www.w3.org/1999/xlink" width="200px" height="402px" viewBox="0 0 200 402" version="1.1">
<g id="surface1">
<path style=" stroke:none;fill-rule:nonzero;fill:rgb(89.803922%,27.058824%,21.568627%);fill-opacity:1;" d="M 11.828125 111.421875 C 13.492188 111.421875 15.183594 111.070312 16.792969 110.320312 L 193.152344 28.371094 C 199.058594 25.625 201.621094 18.617188 198.875 12.710938 C 196.128906 6.808594 189.113281 4.25 183.207031 6.992188 L 6.847656 88.945312 C 0.941406 91.691406 -1.621094 98.699219 1.125 104.605469 C 3.125 108.898438 7.382812 111.421875 11.828125 111.421875 Z M 183.207031 57.09375 L 6.847656 139.042969 C 0.941406 141.785156 -1.621094 148.796875 1.125 154.699219 C 3.125 158.992188 7.382812 161.519531 11.828125 161.519531 C 13.492188 161.519531 15.183594 161.164062 16.792969 160.417969 L 193.152344 78.46875 C 199.058594 75.722656 201.621094 68.710938 198.875 62.808594 C 196.128906 56.90625 189.113281 54.347656 183.207031 57.089844 Z M 183.207031 107.609375 L 6.847656 189.558594 C 0.941406 192.304688 -1.621094 199.3125 1.125 205.214844 C 3.125 209.511719 7.382812 212.035156 11.828125 212.035156 C 13.492188 212.035156 15.183594 211.683594 16.792969 210.933594 L 193.152344 128.984375 C 199.058594 126.242188 201.621094 119.230469 198.875 113.328125 C 196.128906 107.425781 189.113281 104.863281 183.207031 107.609375 Z M 11.828125 61.46875 C 13.496094 61.46875 15.191406 61.109375 16.804688 60.359375 L 98.105469 22.472656 C 104.011719 19.722656 106.5625 12.707031 103.808594 6.808594 C 101.054688 0.90625 94.039062 -1.640625 88.132812 1.105469 L 6.835938 38.992188 C 0.933594 41.746094 -1.621094 48.757812 1.128906 54.660156 C 3.132812 58.949219 7.386719 61.46875 11.828125 61.46875 Z M 183.164062 157.726562 L 120.820312 187.015625 C 116.683594 188.957031 114.042969 193.113281 114.042969 197.683594 L 114.042969 256.515625 L 86.800781 256.515625 L 86.800781 212.59375 C 86.800781 206.085938 81.519531 200.808594 75.007812 200.808594 C 68.492188 200.808594 63.210938 206.085938 63.210938 212.59375 L 63.210938 256.515625 L 46.308594 256.515625 C 41.289062 256.515625 37.492188 261.054688 38.382812 265.992188 L 42.359375 288.0625 C 43.050781 291.898438 46.390625 294.6875 50.285156 294.683594 L 91.667969 294.683594 L 47.835938 302.640625 C 44.632812 303.222656 42.503906 306.289062 43.085938 309.492188 C 43.597656 312.292969 46.035156 314.328125 48.882812 314.332031 C 49.234375 314.332031 49.589844 314.300781 49.945312 314.238281 L 150.480469 295.992188 C 151.984375 295.71875 153.320312 294.871094 154.207031 293.628906 C 156.289062 292.449219 157.816406 290.371094 158.203125 287.867188 L 161.613281 265.792969 C 162.367188 260.917969 158.589844 256.515625 153.652344 256.515625 L 137.632812 256.515625 L 137.632812 205.164062 L 193.199219 179.058594 C 199.09375 176.289062 201.625 169.269531 198.851562 163.378906 C 196.082031 157.488281 189.058594 154.957031 183.160156 157.726562 Z M 148.371094 314.425781 L 47.835938 332.667969 C 44.632812 333.25 42.507812 336.316406 43.085938 339.519531 C 43.597656 342.320312 46.035156 344.359375 48.882812 344.363281 C 49.230469 344.363281 49.585938 344.332031 49.941406 344.265625 L 150.480469 326.023438 C 153.683594 325.441406 155.808594 322.375 155.226562 319.171875 C 154.644531 315.972656 151.578125 313.835938 148.371094 314.425781 Z M 148.371094 345.582031 L 47.835938 363.820312 C 44.632812 364.402344 42.503906 367.46875 43.085938 370.671875 C 43.597656 373.472656 46.035156 375.507812 48.882812 375.515625 C 49.230469 375.515625 49.585938 375.484375 49.941406 375.417969 L 150.480469 357.175781 C 153.683594 356.59375 155.808594 353.527344 155.226562 350.324219 C 154.644531 347.121094 151.578125 344.988281 148.371094 345.578125 Z M 136.347656 377 L 61.367188 389.914062 C 58.1875 390.496094 56.070312 393.527344 56.621094 396.710938 C 57.167969 399.894531 60.179688 402.042969 63.371094 401.527344 L 138.351562 388.617188 C 141.5625 388.066406 143.714844 385.015625 143.164062 381.808594 C 142.609375 378.605469 139.566406 376.460938 136.347656 377 Z M 136.347656 377 "/>
</g>
</svg>
