<svg xmlns="http://www.w3.org/2000/svg" width="926.716" height="236.736" viewBox="0 0 926.716 236.736">
  <g id="Group_3059" data-name="Group 3059" transform="translate(2841.892 17328.209)">
    <g id="Group_314" data-name="Group 314" transform="translate(-5156.109 -18100.264)">
      <g id="Group_313" data-name="Group 313" transform="translate(2314.217 772.054)">
        <g id="Group_311" data-name="Group 311" transform="translate(0)">
          <path id="Path_675" data-name="Path 675" d="M2484.109,856.217a7.037,7.037,0,0,1,9.952,9.952h-.006l-.012-.026c-10.349,10.348-16.195,23.169-17.27,35.552-.835,9.441,1.128,18.566,6.033,26l17.967-17.978a22.37,22.37,0,1,1,9.95,9.963l-17.972,17.973c7.433,4.9,16.564,6.86,26.005,6.031,12.382-1.08,25.206-6.93,35.545-17.259l-.018-.028v-.008a7.036,7.036,0,0,1,9.951,9.95l-.008.011-.02-.019c-12.759,12.751-28.735,19.981-44.2,21.357-15.922,1.389-31.407-3.366-42.646-14.585l-.014.009h-.011l.019-.02c-11.229-11.254-15.984-26.718-14.576-42.647,1.355-15.478,8.579-31.444,21.346-44.213l-.019-.013Z" transform="translate(-2329.588 -854.157)" fill="#d92a2c"/>
          <path id="Path_676" data-name="Path 676" d="M2564.271,1021.6a7.037,7.037,0,0,1-9.951,9.953h0l.019-.018c-10.352-10.332-23.182-16.185-35.546-17.269-9.443-.827-18.582,1.142-26.005,6.03l17.971,17.974a22.372,22.372,0,1,1-9.951,9.943l-17.972-17.958c-4.89,7.426-6.861,16.565-6.041,26,1.093,12.375,6.927,25.189,17.268,35.52l.016-.02.019.011a7.043,7.043,0,0,1-9.951,9.969l-.02-.011.02-.044c-12.751-12.75-19.973-28.714-21.342-44.192-1.4-15.922,3.341-31.4,14.579-42.628l-.019-.023v-.007h.019l.016.019c11.229-11.232,26.7-15.987,42.634-14.595,15.482,1.364,31.43,8.594,44.208,21.366l.019-.026Z" transform="translate(-2329.59 -867.093)" fill="#1b92d0"/>
          <path id="Path_677" data-name="Path 677" d="M2398.873,1101.767a7.031,7.031,0,0,1-9.952-9.935v-.007l.026.017c10.342-10.35,16.179-23.172,17.27-35.552.829-9.435-1.144-18.576-6.041-26l-17.964,17.978a22.375,22.375,0,1,1-9.953-9.961l17.976-17.975c-7.442-4.9-16.584-6.872-26.016-6.033-12.373,1.083-25.2,6.939-35.536,17.268l.017.028-.01.009a7.033,7.033,0,0,1-9.94-9.951v-.008l.024.008c12.761-12.77,28.719-19.98,44.2-21.354,15.923-1.392,31.4,3.364,42.644,14.583l.013-.008h0v.008l-.006.018c11.229,11.238,15.985,26.72,14.592,42.652-1.373,15.474-8.6,31.432-21.367,44.2l.021.014Z" transform="translate(-2316.654 -867.096)" fill="#00a550"/>
          <path id="Path_678" data-name="Path 678" d="M2318.71,936.379a7.037,7.037,0,0,1,9.953-9.952h0l-.019.016c10.339,10.333,23.172,16.186,35.543,17.288,9.432.819,18.564-1.153,26-6.048l-17.958-17.976a22.365,22.365,0,1,1,9.946-9.935l17.973,17.95c4.887-7.425,6.871-16.565,6.034-26.007-1.085-12.372-6.933-25.188-17.271-35.518l-.011.009-.018-.009a7.036,7.036,0,1,1,9.951-9.951l.011.009-.018.032c12.761,12.753,20,28.71,21.347,44.192,1.4,15.924-3.338,31.4-14.573,42.634l.016.029h-.016l-.018-.012c-11.237,11.238-26.71,15.974-42.634,14.583-15.474-1.372-31.449-8.6-44.208-21.361l-.03.025Z" transform="translate(-2316.65 -854.16)" fill="#f5be1f"/>
          <path id="Path_679" data-name="Path 679" d="M2457.229,983.167V962.25h-3.855v-3.116h19.874v3.116h-8.657v37.7a5.941,5.941,0,0,0,.427,2.34,5.6,5.6,0,0,0,1.267,1.887,6.281,6.281,0,0,0,4.615,1.99h-19.322a5.989,5.989,0,0,0,4.1-2.169,6.256,6.256,0,0,0,1.552-4.049v-13.4h-3.393a21.01,21.01,0,0,1-4.428,13.588,15.874,15.874,0,0,1-12.912,6.026q-11.892,0-18-9.434a25.707,25.707,0,0,1-4.441-14.319v-1.9l7.731-1.878a6.065,6.065,0,0,0-.141,1c-.034.406-.051.96-.051,1.646a36.229,36.229,0,0,0,2.36,13.865q3.766,8.952,12.541,8.946c3.33,0,5.9-1.676,7.734-4.988a21.318,21.318,0,0,0,2.254-10.286c0-3.513-.828-6.269-2.448-8.231-1.638-1.991-4.271-3.144-7.927-3.461a11.538,11.538,0,0,0-5.847,1.514v-4.526a11.5,11.5,0,0,0,2.694.9,17.608,17.608,0,0,0,3.153.239,10.12,10.12,0,0,0,6.693-2.45,7.42,7.42,0,0,0,2.934-5.847,6.264,6.264,0,0,0-2.316-5.035,8.636,8.636,0,0,0-5.794-1.931,10.146,10.146,0,0,0-6.836,2.774c-2.112,1.852-3.15,3.806-3.15,5.893l-5.1-4.157a16,16,0,0,1,5.751-4.986,19.2,19.2,0,0,1,9.336-2.359,17.684,17.684,0,0,1,9.988,2.923c3.4,2.194,5.086,5.063,5.086,8.578a8.18,8.18,0,0,1-1.267,4.572,12.948,12.948,0,0,1-3.641,3.532,11.53,11.53,0,0,0,1.419.844,5.253,5.253,0,0,1,1.982,2.352c.131.246.416.749.842,1.479a13.23,13.23,0,0,1,.956,1.737Z" transform="translate(-2325.288 -863.29)" fill="#fff"/>
        </g>
        <g id="Group_312" data-name="Group 312" transform="translate(277.398 5.508)">
          <path id="Path_680" data-name="Path 680" d="M2647.849,921.388c-16.827,0-26.809-12.778-26.809-29,0-17.087,11-29.849,27.729-29.849,17.51,0,27.06,13.1,27.06,28.821,0,18.778-11.246,30.033-27.906,30.033Zm.582-10.241c8.715,0,13.7-8.2,13.7-19.369,0-10.226-4.811-19.031-13.7-19.031-8.872,0-13.858,8.636-13.858,19.285,0,10.748,5.155,19.116,13.774,19.116Z" transform="translate(-2621.041 -860.408)" fill="#fff"/>
          <path id="Path_681" data-name="Path 681" d="M2690.513,863.555h12.846v46.16h22.665v10.818h-35.511Z" transform="translate(-2627.2 -860.498)" fill="#fff"/>
          <path id="Path_682" data-name="Path 682" d="M2771.726,896.447h-20.975V909.97h23.417v10.564H2737.9V863.555h35.086V874.12h-22.239v11.833h20.975Z" transform="translate(-2631.404 -860.498)" fill="#fff"/>
          <path id="Path_683" data-name="Path 683" d="M2806.076,920.534V863.555h15.051l11.841,20.875a180.156,180.156,0,0,1,9.3,19.539h.17a235.752,235.752,0,0,1-1.015-23.833V863.555h11.834v56.979h-13.527l-12.17-21.975a200.434,200.434,0,0,1-9.894-20.129h-.346c.43,7.622.6,15.651.6,24.932v17.172Z" transform="translate(-2637.448 -860.498)" fill="#fff"/>
          <path id="Path_684" data-name="Path 684" d="M2879.091,905.293c.424,5.422,5.66,7.958,11.663,7.958a33.659,33.659,0,0,0,11.409-1.788l1.7,8.719a39.115,39.115,0,0,1-14.969,2.621c-14.028,0-22.062-8.114-22.062-21.13,0-10.494,6.6-22.072,20.881-22.072,13.359,0,18.424,10.409,18.424,20.622a31.819,31.819,0,0,1-.416,5.169Zm15.129-8.776c0-3.043-1.354-8.381-7.184-8.381-5.493,0-7.69,4.986-8.027,8.381Z" transform="translate(-2642.836 -861.921)" fill="#fff"/>
          <path id="Path_685" data-name="Path 685" d="M2918.362,894.483c0-5.4-.165-9.974-.334-13.86h11.157l.594,5.746h.168c3.043-4.31,7.784-6.676,13.782-6.676,9.039,0,17.165,7.859,17.165,21.045,0,15.057-9.55,22.172-18.771,22.172-4.994,0-8.879-2.045-10.742-4.748h-.167v20.551h-12.853Zm12.853,9.718a13.263,13.263,0,0,0,.255,2.719,7.774,7.774,0,0,0,7.525,6.086c5.571,0,8.877-4.649,8.877-11.678,0-6.593-2.952-11.579-8.712-11.579a8.067,8.067,0,0,0-7.69,6.509,9.951,9.951,0,0,0-.255,2.3Z" transform="translate(-2647.375 -861.929)" fill="#fff"/>
          <path id="Path_686" data-name="Path 686" d="M3008,911.977a53.742,53.742,0,0,0,.684,9.987H2997.1l-.76-4.144h-.254c-2.705,3.3-6.935,5.089-11.837,5.089-8.361,0-13.354-6.1-13.354-12.692,0-10.735,9.632-15.805,24.268-15.805v-.507c0-2.213-1.2-5.339-7.529-5.339a24.21,24.21,0,0,0-11.417,3.057l-2.372-8.212a34.037,34.037,0,0,1,16.071-3.719c13.777,0,18.087,8.114,18.087,17.834Zm-12.416-9.537c-6.775,0-12.017,1.608-12.017,6.51,0,3.294,2.2,4.9,5.084,4.9a7.14,7.14,0,0,0,6.678-4.734,9.647,9.647,0,0,0,.255-2.2Z" transform="translate(-2652.064 -861.929)" fill="#fff"/>
          <path id="Path_687" data-name="Path 687" d="M3022.838,860.2h12.85v60.035h-12.85Z" transform="translate(-2656.67 -860.201)" fill="#fff"/>
          <path id="Path_688" data-name="Path 688" d="M3063.1,861.886a108.6,108.6,0,0,1-10.144,22.819l-7.775.762a137.164,137.164,0,0,0,5.917-22.835Z" transform="translate(-2658.651 -860.351)" fill="#fff"/>
          <path id="Path_689" data-name="Path 689" d="M3063.6,910.794a24.97,24.97,0,0,0,11.068,3.059c3.9,0,5.507-1.281,5.507-3.382,0-2.211-1.27-3.225-6.01-4.831-8.612-2.775-11.922-7.522-11.838-12.34,0-7.774,6.6-13.607,16.832-13.607a27.184,27.184,0,0,1,11.58,2.451l-2.2,8.79a22.159,22.159,0,0,0-8.959-2.283c-3.133,0-4.912,1.282-4.912,3.3s1.617,3.043,6.689,4.818c7.86,2.633,11.069,6.691,11.162,12.691,0,7.762-6,13.454-17.852,13.454a29.191,29.191,0,0,1-13.351-2.973Z" transform="translate(-2660.082 -861.929)" fill="#fff"/>
          <path id="Path_690" data-name="Path 690" d="M2667.7,1003.531h-26.141v16.848h29.188v13.183h-45.2V962.54h43.731V975.7h-27.717v14.763H2667.7Z" transform="translate(-2621.44 -869.276)" fill="#fff"/>
          <path id="Path_691" data-name="Path 691" d="M2710.626,1004.273v10.649h-27.617v-10.649Z" transform="translate(-2626.534 -872.976)" fill="#fff"/>
          <path id="Path_692" data-name="Path 692" d="M2724.407,963.419a133.309,133.309,0,0,1,21.708-1.451c9.912,0,17.075,1.887,21.812,5.787,4.539,3.467,7.48,9.384,7.48,16.33,0,7.055-2.212,12.97-6.423,16.873-5.479,5.043-13.7,7.482-23.186,7.482a26.763,26.763,0,0,1-5.479-.439v25.51h-15.912Zm15.912,32.256a24.947,24.947,0,0,0,5.376.41c8.535,0,13.8-4.3,13.8-11.481,0-6.534-4.426-10.424-12.538-10.424a29.719,29.719,0,0,0-6.642.521Z" transform="translate(-2630.205 -869.225)" fill="#fff"/>
          <path id="Path_693" data-name="Path 693" d="M2838.416,1018.909c0,6.758.21,12.225.421,16.549h-13.911l-.745-7.27h-.309c-2,3.171-6.846,8.426-16.129,8.426-10.537,0-18.131-6.522-18.131-22.439V983.917h16.025v27.736c0,7.48,2.422,12,8.114,12a8.885,8.885,0,0,0,8.642-9.059v-30.68h16.022Z" transform="translate(-2635.988 -871.172)" fill="#fff"/>
          <path id="Path_694" data-name="Path 694" d="M2856.869,1021.429a31.213,31.213,0,0,0,13.8,3.788c4.851,0,6.859-1.562,6.859-4.2,0-2.747-1.593-4.015-7.493-6.015-10.746-3.465-14.844-9.381-14.747-15.382,0-9.691,8.213-16.974,20.975-16.974a33.914,33.914,0,0,1,14.437,3.058l-2.738,10.957a27.451,27.451,0,0,0-11.172-2.831c-3.9,0-6.12,1.564-6.12,4.085,0,2.549,2.008,3.8,8.332,6.014,9.8,3.27,13.806,8.339,13.912,15.805,0,9.719-7.481,16.764-22.244,16.764a36.559,36.559,0,0,1-16.649-3.676Z" transform="translate(-2641.7 -871.059)" fill="#fff"/>
          <path id="Path_695" data-name="Path 695" d="M2924.909,968.553v14H2936.4v11.819h-11.491v18.749c0,6.226,1.574,9.071,6.321,9.071a20.206,20.206,0,0,0,4.748-.422l.1,12.112a33.408,33.408,0,0,1-10.326,1.369c-5.162,0-9.48-1.79-12.116-4.424-2.949-3.055-4.43-8-4.43-15.283V994.373h-6.854V982.555h6.854v-9.691Z" transform="translate(-2645.985 -869.809)" fill="#fff"/>
          <path id="Path_696" data-name="Path 696" d="M2992.448,1022.922a65.953,65.953,0,0,0,.844,12.423h-14.443l-.937-5.154h-.323c-3.377,4.113-8.643,6.311-14.755,6.311-10.429,0-16.659-7.58-16.659-15.806,0-13.381,12.018-19.707,30.259-19.707v-.634c0-2.746-1.479-6.634-9.381-6.634a30.215,30.215,0,0,0-14.236,3.788l-2.948-10.209a42.307,42.307,0,0,1,20.029-4.65c17.179,0,22.552,10.114,22.552,22.242Zm-15.5-11.917c-8.436,0-14.966,2-14.966,8.113,0,4.115,2.74,6.1,6.327,6.1a8.843,8.843,0,0,0,8.329-5.888,12.013,12.013,0,0,0,.31-2.73Z" transform="translate(-2649.871 -871.059)" fill="#fff"/>
          <path id="Path_697" data-name="Path 697" d="M3026.939,1003.473h.219a69.986,69.986,0,0,1,3.685-6.211l10.438-15.609h19.282l-18.437,20.877,21.079,30.663h-19.713l-12.544-21.171-4.009,5.154v16.017h-16.017v-74.81h16.017Z" transform="translate(-2655.613 -868.907)" fill="#fff"/>
          <path id="Path_698" data-name="Path 698" d="M3116.738,1022.922a66.236,66.236,0,0,0,.848,12.423h-14.443l-.939-5.154h-.319c-3.373,4.113-8.644,6.311-14.755,6.311-10.438,0-16.647-7.58-16.647-15.806,0-13.381,12.015-19.707,30.241-19.707v-.634c0-2.746-1.473-6.634-9.375-6.634a30.185,30.185,0,0,0-14.235,3.788l-2.941-10.209a42.256,42.256,0,0,1,20.015-4.65c17.172,0,22.553,10.114,22.553,22.242ZM3101.248,1011c-8.427,0-14.964,2-14.964,8.113,0,4.115,2.731,6.1,6.325,6.1a8.84,8.84,0,0,0,8.325-5.888,11.385,11.385,0,0,0,.313-2.73Z" transform="translate(-2660.895 -871.059)" fill="#fff"/>
          <path id="Path_699" data-name="Path 699" d="M3135.229,958.384h16.022v74.81h-16.022Z" transform="translate(-2666.636 -868.907)" fill="#fff"/>
          <path id="Path_700" data-name="Path 700" d="M3209.474,1022.922a66.667,66.667,0,0,0,.847,12.423h-14.441l-.955-5.154h-.308c-3.373,4.113-8.652,6.311-14.762,6.311-10.433,0-16.652-7.58-16.652-15.806,0-13.381,12.016-19.707,30.244-19.707v-.634c0-2.746-1.463-6.634-9.367-6.634a30.113,30.113,0,0,0-14.227,3.788L3166.9,987.3a42.313,42.313,0,0,1,20.024-4.65c17.172,0,22.549,10.114,22.549,22.242ZM3193.983,1011c-8.425,0-14.968,2-14.968,8.113,0,4.115,2.74,6.1,6.325,6.1a8.855,8.855,0,0,0,8.335-5.888,11.745,11.745,0,0,0,.308-2.73Z" transform="translate(-2669.116 -871.059)" fill="#fff"/>
          <path id="Path_701" data-name="Path 701" d="M3237.22,983.917l7.691,25.313c.844,3.057,1.9,6.845,2.523,9.578h.327c.729-2.733,1.576-6.634,2.31-9.578l6.322-25.313h17.186l-12.027,33.948c-7.37,20.453-12.315,28.552-18.118,33.708a28.169,28.169,0,0,1-15.486,7.085l-3.373-13.494a25.745,25.745,0,0,0,6.953-2.747,18.564,18.564,0,0,0,6.643-6.424,4.424,4.424,0,0,0,.837-2.338,7.1,7.1,0,0,0-.628-2.635l-18.974-47.1Z" transform="translate(-2674.1 -871.172)" fill="#fff"/>
          <path id="Path_702" data-name="Path 702" d="M3328.11,1022.922a66.415,66.415,0,0,0,.847,12.423h-14.441l-.942-5.154h-.321c-3.375,4.113-8.634,6.311-14.752,6.311-10.435,0-16.647-7.58-16.647-15.806,0-13.381,12.015-19.707,30.244-19.707v-.634c0-2.746-1.482-6.634-9.384-6.634a30.135,30.135,0,0,0-14.226,3.788l-2.952-10.209a42.279,42.279,0,0,1,20.021-4.65c17.18,0,22.554,10.114,22.554,22.242ZM3312.617,1011c-8.426,0-14.961,2-14.961,8.113,0,4.115,2.74,6.1,6.326,6.1a8.847,8.847,0,0,0,8.324-5.888,11.639,11.639,0,0,0,.311-2.73Z" transform="translate(-2679.639 -871.059)" fill="#fff"/>
          <path id="Path_703" data-name="Path 703" d="M2625.877,1060.218h17.346v4.144h-12.689v9.079h12.689v4.142h-12.689v15.156h-4.656Z" transform="translate(-2621.469 -877.938)" fill="#fff"/>
          <path id="Path_704" data-name="Path 704" d="M2654.3,1072.361v4.913l.233-.372q3.072-4.96,6.145-4.959a7.576,7.576,0,0,1,5,2.422l-2.233,3.725a6.278,6.278,0,0,0-4.1-2.1,4.386,4.386,0,0,0-3.549,1.955,7.383,7.383,0,0,0-1.5,4.633v11.2h-4.261v-21.417Z" transform="translate(-2623.612 -878.977)" fill="#fff"/>
          <path id="Path_705" data-name="Path 705" d="M2687.56,1083.444H2672.5a6.979,6.979,0,0,0,2.061,4.889,6.791,6.791,0,0,0,4.9,1.815,12.762,12.762,0,0,0,7.729-2.607v4.143a14.05,14.05,0,0,1-3.878,1.862,16.107,16.107,0,0,1-4.5.559,10.1,10.1,0,0,1-5.727-1.467,10.623,10.623,0,0,1-3.5-3.946,12.043,12.043,0,0,1-1.314-5.738,11.386,11.386,0,0,1,2.771-7.95,9.249,9.249,0,0,1,7.194-3.062,8.469,8.469,0,0,1,6.8,2.981,11.9,11.9,0,0,1,2.539,7.985Zm-14.971-2.538h10.779a5.919,5.919,0,0,0-1.513-3.912,4.856,4.856,0,0,0-3.631-1.374,5.218,5.218,0,0,0-3.737,1.374A6.785,6.785,0,0,0,2672.589,1080.906Z" transform="translate(-2625.228 -878.977)" fill="#fff"/>
          <path id="Path_706" data-name="Path 706" d="M2712.618,1083.444h-15.062a7,7,0,0,0,2.061,4.889,6.8,6.8,0,0,0,4.9,1.815,12.77,12.77,0,0,0,7.731-2.607v4.143a14.129,14.129,0,0,1-3.878,1.862,16.117,16.117,0,0,1-4.5.559,10.114,10.114,0,0,1-5.729-1.467,10.641,10.641,0,0,1-3.5-3.946,12.055,12.055,0,0,1-1.316-5.738,11.4,11.4,0,0,1,2.77-7.95,9.259,9.259,0,0,1,7.194-3.062,8.484,8.484,0,0,1,6.8,2.981,11.926,11.926,0,0,1,2.534,7.985Zm-14.969-2.538h10.779a5.924,5.924,0,0,0-1.513-3.912,4.859,4.859,0,0,0-3.633-1.374,5.219,5.219,0,0,0-3.736,1.374A6.808,6.808,0,0,0,2697.649,1080.906Z" transform="translate(-2627.45 -878.977)" fill="#fff"/>
          <path id="Path_707" data-name="Path 707" d="M2754.542,1092.8l-3.787-4.439a19.987,19.987,0,0,1-1.677,1.426l-.045.045a15.222,15.222,0,0,1-4.092,2.359,12.272,12.272,0,0,1-4.582.983,8.078,8.078,0,0,1-5.73-2.2,7.065,7.065,0,0,1-2.354-5.365,7.609,7.609,0,0,1,1.154-4.123,14.428,14.428,0,0,1,3.76-3.747l.068-.069a22.754,22.754,0,0,1,2.657-1.747q-3.68-3.934-3.68-7.543a6.977,6.977,0,0,1,2.26-5.4,8.32,8.32,0,0,1,5.864-2.073,8.444,8.444,0,0,1,5.823,2.029,6.626,6.626,0,0,1,2.279,5.174q0,4.267-5.7,8.3l-.328.256,4.582,5.221a22,22,0,0,0,3.5-5.242h4.656a29.512,29.512,0,0,1-5.3,8.531l6.6,7.625Zm-7.71-6.73,1.046-.956-5.283-6.1-2.051,1.442q-3.636,2.448-3.636,4.962a2.96,2.96,0,0,0,1.188,2.352,4.355,4.355,0,0,0,2.863.98,7.257,7.257,0,0,0,2.95-.747A10.942,10.942,0,0,0,2746.833,1086.071Zm-3.032-12.546,1.778-1.259a4.977,4.977,0,0,0,2.482-4.062,3.115,3.115,0,0,0-1.036-2.382,4.072,4.072,0,0,0-5.157-.069,2.833,2.833,0,0,0-1,2.215,6.054,6.054,0,0,0,.786,2.786A10.2,10.2,0,0,0,2743.8,1073.524Z" transform="translate(-2630.905 -877.999)" fill="#fff"/>
          <path id="Path_708" data-name="Path 708" d="M2797.755,1059.7a17.494,17.494,0,0,1,12.554,4.774,15.835,15.835,0,0,1,5.015,11.966,15.586,15.586,0,0,1-5.061,11.909,18,18,0,0,1-12.763,4.714,16.963,16.963,0,0,1-12.248-4.714,15.715,15.715,0,0,1-4.9-11.816,16.07,16.07,0,0,1,4.931-12.059A17.208,17.208,0,0,1,2797.755,1059.7Zm.188,4.425a12.623,12.623,0,0,0-9.175,3.491,11.89,11.89,0,0,0-3.595,8.917,11.684,11.684,0,0,0,3.6,8.754,13.388,13.388,0,0,0,18.109-.069,11.915,11.915,0,0,0,3.64-8.869,11.637,11.637,0,0,0-3.64-8.7A12.367,12.367,0,0,0,2797.943,1064.129Z" transform="translate(-2635.167 -877.892)" fill="#fff"/>
          <path id="Path_709" data-name="Path 709" d="M2824.063,1104.739V1072.4h7.421q5.692,0,8.869,2.841a10.1,10.1,0,0,1,3.173,7.938,10.927,10.927,0,0,1-2.987,7.915,10.117,10.117,0,0,1-7.611,3.1,13.318,13.318,0,0,1-4.532-.911v11.456Zm7.327-28.379h-3v13.176a8.832,8.832,0,0,0,4.088,1,6.3,6.3,0,0,0,4.867-2.072,7.608,7.608,0,0,0,1.893-5.33,7.5,7.5,0,0,0-.895-3.7,5.431,5.431,0,0,0-2.437-2.339A10.923,10.923,0,0,0,2831.39,1076.361Z" transform="translate(-2639.043 -879.018)" fill="#fff"/>
          <path id="Path_710" data-name="Path 710" d="M2868.68,1083.444H2853.62a6.98,6.98,0,0,0,2.057,4.889,6.808,6.808,0,0,0,4.9,1.815,12.762,12.762,0,0,0,7.729-2.607v4.143a14.106,14.106,0,0,1-3.876,1.862,16.129,16.129,0,0,1-4.5.559,10.106,10.106,0,0,1-5.729-1.467,10.66,10.66,0,0,1-3.5-3.946,12.055,12.055,0,0,1-1.314-5.738,11.391,11.391,0,0,1,2.771-7.95,9.248,9.248,0,0,1,7.192-3.062,8.47,8.47,0,0,1,6.8,2.981,11.9,11.9,0,0,1,2.538,7.985Zm-14.969-2.538h10.778a5.919,5.919,0,0,0-1.513-3.912,4.864,4.864,0,0,0-3.633-1.374,5.217,5.217,0,0,0-3.736,1.374A6.8,6.8,0,0,0,2853.711,1080.906Z" transform="translate(-2641.288 -878.977)" fill="#fff"/>
          <path id="Path_711" data-name="Path 711" d="M2879.818,1072.361v2.724a8.515,8.515,0,0,1,6.449-3.144,7.091,7.091,0,0,1,3.724,1.036,6.782,6.782,0,0,1,2.622,2.841,13.614,13.614,0,0,1,.895,5.716v12.244h-4.239v-12.2a8.363,8.363,0,0,0-1-4.693,3.835,3.835,0,0,0-3.354-1.408,6.1,6.1,0,0,0-5.1,3v15.294h-4.33v-21.417Z" transform="translate(-2643.604 -878.977)" fill="#fff"/>
          <path id="Path_712" data-name="Path 712" d="M2916.976,1092.693v-32.475h10.964q6.636,0,10.5,1.988a15.029,15.029,0,0,1,6.147,5.856,16.267,16.267,0,0,1,2.284,8.428,15.943,15.943,0,0,1-1.259,6.241,16.1,16.1,0,0,1-9.1,8.752,16.324,16.324,0,0,1-3.376.967,45.151,45.151,0,0,1-5.867.244Zm10.474-28.331h-5.819v24.188h5.962a23.83,23.83,0,0,0,5.426-.477,12.713,12.713,0,0,0,3.222-1.211,11.038,11.038,0,0,0,2.362-1.8,12.044,12.044,0,0,0,3.445-8.824,11.165,11.165,0,0,0-3.536-8.544,11.372,11.372,0,0,0-2.993-2.025,12.475,12.475,0,0,0-3.2-1.048A32.553,32.553,0,0,0,2927.45,1064.362Z" transform="translate(-2647.282 -877.938)" fill="#fff"/>
          <path id="Path_713" data-name="Path 713" d="M2957.684,1062.516a2.488,2.488,0,0,1,1.794.722,2.366,2.366,0,0,1,.744,1.769,2.414,2.414,0,0,1-.744,1.769,2.451,2.451,0,0,1-1.794.747,2.349,2.349,0,0,1-1.722-.759,2.43,2.43,0,0,1-.745-1.757,2.4,2.4,0,0,1,.745-1.734A2.345,2.345,0,0,1,2957.684,1062.516Zm-2.092,9.009h4.235v21.418h-4.235Z" transform="translate(-2650.673 -878.141)" fill="#fff"/>
          <path id="Path_714" data-name="Path 714" d="M2965.608,1079.807a6.552,6.552,0,0,1,2.5-5.414,10.7,10.7,0,0,1,6.835-1.991h8.823v3.306h-4.331a8.925,8.925,0,0,1,1.747,2.328,5.635,5.635,0,0,1,.487,2.4,6.417,6.417,0,0,1-.953,3.294,6.748,6.748,0,0,1-2.456,2.48,14.967,14.967,0,0,1-4.926,1.373q-2.4.349-2.4,1.653a1.407,1.407,0,0,0,.9,1.222,14.052,14.052,0,0,0,3.247.989,35.232,35.232,0,0,1,5.064,1.35,6.537,6.537,0,0,1,2.037,1.4,5.242,5.242,0,0,1,1.535,3.864,5.589,5.589,0,0,1-2.714,4.865,12.837,12.837,0,0,1-7.25,1.815,13.008,13.008,0,0,1-7.323-1.827,5.635,5.635,0,0,1-2.735-4.9q0-4.354,5.379-5.609-2.14-1.377-2.142-2.726a2.481,2.481,0,0,1,.921-1.861,5.682,5.682,0,0,1,2.478-1.234Q2965.607,1084.486,2965.608,1079.807Zm6.96,15.016a6.2,6.2,0,0,0-3.5.907,2.71,2.71,0,0,0-1.361,2.329q0,3.305,5.958,3.305a9.412,9.412,0,0,0,4.365-.827,2.554,2.554,0,0,0,1.549-2.34q0-1.49-1.954-2.433A11.693,11.693,0,0,0,2972.568,1094.823Zm1-18.741a4.073,4.073,0,0,0-2.935,1.163,3.743,3.743,0,0,0-1.211,2.794,3.541,3.541,0,0,0,1.188,2.735,4.282,4.282,0,0,0,3,1.083,4.238,4.238,0,0,0,2.988-1.1,3.6,3.6,0,0,0,1.2-2.76,3.647,3.647,0,0,0-1.21-2.793A4.293,4.293,0,0,0,2973.571,1076.082Z" transform="translate(-2651.425 -879.018)" fill="#fff"/>
          <path id="Path_715" data-name="Path 715" d="M2991.48,1062.516a2.484,2.484,0,0,1,1.795.722,2.368,2.368,0,0,1,.747,1.769,2.417,2.417,0,0,1-.747,1.769,2.447,2.447,0,0,1-1.795.747,2.347,2.347,0,0,1-1.721-.759,2.432,2.432,0,0,1-.743-1.757,2.4,2.4,0,0,1,.743-1.734A2.343,2.343,0,0,1,2991.48,1062.516Zm-2.095,9.009h4.239v21.418h-4.239Z" transform="translate(-2653.671 -878.141)" fill="#fff"/>
          <path id="Path_716" data-name="Path 716" d="M2997.5,1075.372l7.963-7.823v4.423h6.773v3.819h-6.773v10.482q0,3.672,3.052,3.674a9.449,9.449,0,0,0,4.816-1.515v3.958a10.671,10.671,0,0,1-5.33,1.375,7.071,7.071,0,0,1-4.845-1.7,4.8,4.8,0,0,1-1-1.153,5.994,5.994,0,0,1-.662-1.676,18.632,18.632,0,0,1-.269-3.945v-9.5H2997.5Z" transform="translate(-2654.423 -878.588)" fill="#fff"/>
          <path id="Path_717" data-name="Path 717" d="M3031.5,1080.906v9.1c0,.729.25,1.094.745,1.094a5.126,5.126,0,0,0,2.4-1.14v2.584a13.927,13.927,0,0,1-2.316,1.268,5.018,5.018,0,0,1-1.827.339q-2.725,0-3.215-2.142a9.217,9.217,0,0,1-5.747,2.094,5.079,5.079,0,0,1-3.728-1.477,5.019,5.019,0,0,1-1.489-3.714,5.229,5.229,0,0,1,1.453-3.62,9.879,9.879,0,0,1,4.135-2.529l5.423-1.86v-1.141q0-3.865-3.865-3.865-3.469,0-6.749,3.585v-4.633a8.792,8.792,0,0,1,7.1-2.911,8.186,8.186,0,0,1,5.563,1.816,6.182,6.182,0,0,1,1.968,3.481A28.71,28.71,0,0,1,3031.5,1080.906Zm-4.167,8.637v-6.356l-2.839,1.095a9.513,9.513,0,0,0-3.062,1.735,3.136,3.136,0,0,0-.047,4.34,2.992,2.992,0,0,0,2.2.839A5.327,5.327,0,0,0,3027.335,1089.543Z" transform="translate(-2656.093 -878.977)" fill="#fff"/>
          <path id="Path_718" data-name="Path 718" d="M3040.644,1060.218h4.238v32.521h-4.238Z" transform="translate(-2658.25 -877.938)" fill="#fff"/>
          <path id="Path_719" data-name="Path 719" d="M3067.186,1060.218h4.654V1088.5h14.646v4.236h-19.3Z" transform="translate(-2660.603 -877.938)" fill="#fff"/>
          <path id="Path_720" data-name="Path 720" d="M3094.356,1062.516a2.486,2.486,0,0,1,1.793.722,2.374,2.374,0,0,1,.745,1.769,2.422,2.422,0,0,1-.745,1.769,2.449,2.449,0,0,1-1.793.747,2.351,2.351,0,0,1-1.723-.759,2.424,2.424,0,0,1-.743-1.757,2.4,2.4,0,0,1,.743-1.734A2.347,2.347,0,0,1,3094.356,1062.516Zm-2.094,9.009h4.235v21.418h-4.235Z" transform="translate(-2662.793 -878.141)" fill="#fff"/>
          <path id="Path_721" data-name="Path 721" d="M3103.459,1060.218h4.237v12.64a9.791,9.791,0,0,1,5.867-2,8.292,8.292,0,0,1,6.657,3.072,11.848,11.848,0,0,1,2.585,7.892,11.079,11.079,0,0,1-3.082,8.23,11.214,11.214,0,0,1-8.256,3.063,23.041,23.041,0,0,1-4.364-.444,14.356,14.356,0,0,1-3.645-1.117Zm4.237,16.691V1088.5a15.376,15.376,0,0,0,4.447.652,5.869,5.869,0,0,0,4.6-2,7.456,7.456,0,0,0,1.781-5.146,7.85,7.85,0,0,0-1.664-5.192,5.376,5.376,0,0,0-4.341-2A7.486,7.486,0,0,0,3107.7,1076.909Z" transform="translate(-2663.819 -877.938)" fill="#fff"/>
          <path id="Path_722" data-name="Path 722" d="M3134.392,1072.361v4.913l.233-.372q3.073-4.96,6.146-4.959a7.576,7.576,0,0,1,5,2.422l-2.235,3.725a6.27,6.27,0,0,0-4.1-2.1,4.4,4.4,0,0,0-3.555,1.955,7.4,7.4,0,0,0-1.5,4.633v11.2h-4.258v-21.417Z" transform="translate(-2666.184 -878.977)" fill="#fff"/>
          <path id="Path_723" data-name="Path 723" d="M3163.828,1080.906v9.1q0,1.094.746,1.094a5.115,5.115,0,0,0,2.4-1.14v2.584a13.964,13.964,0,0,1-2.314,1.268,5.025,5.025,0,0,1-1.83.339q-2.72,0-3.212-2.142a9.221,9.221,0,0,1-5.751,2.094,5.069,5.069,0,0,1-3.723-1.477,5.01,5.01,0,0,1-1.492-3.714,5.223,5.223,0,0,1,1.456-3.62,9.894,9.894,0,0,1,4.134-2.529l5.424-1.86v-1.141q0-3.865-3.866-3.865-3.467,0-6.75,3.585v-4.633a8.794,8.794,0,0,1,7.1-2.911,8.181,8.181,0,0,1,5.563,1.816,6.2,6.2,0,0,1,1.97,3.481A28.638,28.638,0,0,1,3163.828,1080.906Zm-4.164,8.637v-6.356l-2.841,1.095a9.5,9.5,0,0,0-3.06,1.735,3.133,3.133,0,0,0-.049,4.34,2.992,2.992,0,0,0,2.2.839A5.331,5.331,0,0,0,3159.664,1089.543Z" transform="translate(-2667.826 -878.977)" fill="#fff"/>
          <path id="Path_724" data-name="Path 724" d="M3177.438,1072.361v4.913l.23-.372q3.075-4.96,6.147-4.959a7.576,7.576,0,0,1,5.007,2.422l-2.238,3.725a6.27,6.27,0,0,0-4.1-2.1,4.395,4.395,0,0,0-3.552,1.955,7.386,7.386,0,0,0-1.5,4.633v11.2h-4.262v-21.417Z" transform="translate(-2670.001 -878.977)" fill="#fff"/>
          <path id="Path_725" data-name="Path 725" d="M3208,1072.4h4.754l-15.173,32.337h-4.73l7.272-15.519-8.273-16.818h4.828l5.785,12.1Z" transform="translate(-2671.657 -879.018)" fill="#fff"/>
        </g>
      </g>
    </g>
  </g>
</svg>
